<?xml version="1.0" encoding="UTF-8" standalone="no"?>
<!-- Created with Inkscape (http://www.inkscape.org/) -->

<svg
   width="33.866665mm"
   height="33.866665mm"
   viewBox="0 0 33.866665 33.866665"
   version="1.1"
   id="svg5"
   xml:space="preserve"
   inkscape:version="1.2.2 (b0a8486541, 2022-12-01)"
   sodipodi:docname="ControllerIcon.svg"
   xmlns:inkscape="http://www.inkscape.org/namespaces/inkscape"
   xmlns:sodipodi="http://sodipodi.sourceforge.net/DTD/sodipodi-0.dtd"
   xmlns="http://www.w3.org/2000/svg"
   xmlns:svg="http://www.w3.org/2000/svg"><sodipodi:namedview
     id="namedview7"
     pagecolor="#ffffff"
     bordercolor="#999999"
     borderopacity="1"
     inkscape:showpageshadow="0"
     inkscape:pageopacity="0"
     inkscape:pagecheckerboard="0"
     inkscape:deskcolor="#d1d1d1"
     inkscape:document-units="mm"
     showgrid="false"
     inkscape:zoom="8.4460772"
     inkscape:cx="40.847365"
     inkscape:cy="42.860134"
     inkscape:window-width="1920"
     inkscape:window-height="1008"
     inkscape:window-x="0"
     inkscape:window-y="0"
     inkscape:window-maximized="1"
     inkscape:current-layer="layer2" /><defs
     id="defs2" /><g
     inkscape:groupmode="layer"
     id="layer2"
     inkscape:label="Layer 2"><g
       id="g281"
       style="display:inline"
       transform="scale(0.26458333)"><rect
         x="2"
         y="2"
         width="124"
         height="124"
         rx="14"
         fill="#363d52"
         stroke="#212532"
         stroke-width="4"
         id="rect242"
         style="display:inline;fill:#363d52;fill-opacity:1" /><g
         transform="matrix(0.101,0,0,0.101,12.322,12.322)"
         id="g262"
         style="display:inline;stroke:#000000;stroke-width:3.74210658;stroke-dasharray:none;stroke-opacity:1"><g
           fill="#ffffff"
           id="g254"
           style="stroke:#000000;stroke-width:3.74210658;stroke-dasharray:none;stroke-opacity:1"><path
             d="m 105,673 v 33 q 407,354 814,0 v -33 z"
             id="path244"
             style="stroke:#000000;stroke-width:3.74210658;stroke-dasharray:none;stroke-opacity:1" /><path
             fill="#478cbf"
             d="m 105,673 152,14 q 12,1 15,14 l 4,67 132,10 8,-61 q 2,-11 15,-15 h 162 q 13,4 15,15 l 8,61 132,-10 4,-67 q 3,-13 15,-14 L 919,673 V 427 q 30,-39 56,-81 -35,-59 -83,-108 -43,20 -82,47 -40,-37 -88,-64 7,-51 8,-102 -59,-28 -123,-42 -26,43 -46,89 -49,-7 -98,0 -20,-46 -46,-89 -64,14 -123,42 1,51 8,102 -48,27 -88,64 -39,-27 -82,-47 -48,49 -83,108 26,42 56,81 z m 0,33 v 39 c 0,276 813,276 813,0 v -39 l -134,12 -5,69 q -2,10 -14,13 l -162,11 q -12,0 -16,-11 L 577,735 H 447 l -10,65 q -4,11 -16,11 L 259,800 q -12,-3 -14,-13 l -5,-69 z"
             id="path246"
             style="stroke:#000000;stroke-width:3.74210658;stroke-dasharray:none;stroke-opacity:1" /><path
             d="m 483,600 c 3,34 55,34 58,0 v -86 c -3,-34 -55,-34 -58,0 z"
             id="path248"
             style="stroke:#000000;stroke-width:3.74210658;stroke-dasharray:none;stroke-opacity:1" /><circle
             cx="725"
             cy="526"
             r="90"
             id="circle250"
             style="stroke:#000000;stroke-width:3.74210658;stroke-dasharray:none;stroke-opacity:1" /><circle
             cx="299"
             cy="526"
             r="90"
             id="circle252"
             style="stroke:#000000;stroke-width:3.74210658;stroke-dasharray:none;stroke-opacity:1" /></g><g
           fill="#414042"
           id="g260"
           style="stroke:#000000;stroke-width:3.74210658;stroke-dasharray:none;stroke-opacity:1"><circle
             cx="307"
             cy="532"
             r="60"
             id="circle256"
             style="stroke:#000000;stroke-width:3.74210658;stroke-dasharray:none;stroke-opacity:1" /><circle
             cx="717"
             cy="532"
             r="60"
             id="circle258"
             style="stroke:#000000;stroke-width:3.74210658;stroke-dasharray:none;stroke-opacity:1" /></g></g></g><g
       id="g7901"
       style="display:inline;stroke:#000000;stroke-width:0.2;stroke-dasharray:none;stroke-opacity:1"
       transform="translate(-1.5468757e-6,-0.53162291)"><ellipse
         style="fill:#ffffff;fill-opacity:1;stroke:#000000;stroke-width:0.2;stroke-linecap:round;stroke-miterlimit:3;stroke-dasharray:none;stroke-opacity:1;paint-order:stroke fill markers"
         id="path1934"
         cx="16.942329"
         cy="10.165399"
         rx="1.0725631"
         ry="0.42086813" /><rect
         style="fill:#ffffff;fill-opacity:1;stroke:#000000;stroke-width:0.2;stroke-linecap:round;stroke-miterlimit:3;stroke-dasharray:none;stroke-opacity:1;paint-order:stroke fill markers"
         id="rect1826"
         width="0.78695458"
         height="5.442955"
         x="16.548853"
         y="4.6149211"
         rx="0.39347729"
         ry="0" /><rect
         style="fill:#ffffff;fill-opacity:1;stroke:#000000;stroke-width:0.26612;stroke-linecap:round;stroke-miterlimit:3;stroke-dasharray:none;stroke-opacity:1;paint-order:stroke fill markers"
         id="rect1932"
         width="2.8542991"
         height="2.9293425"
         x="15.51518"
         y="2.3492465"
         rx="1.4271495"
         ry="1.4646713" /><path
         id="rect1932-6"
         style="fill:#00ffff;fill-opacity:1;stroke:#000000;stroke-width:0.26612;stroke-linecap:round;stroke-miterlimit:3;stroke-dasharray:none;stroke-opacity:1;paint-order:stroke fill markers"
         d="m 15.218822,2.2173534 c -0.773428,0.021776 -1.390338,0.7258805 -1.390338,1.5966406 0,0.8845817 0.636829,1.5966405 1.427469,1.5966405 0.08867,0 0.175117,-0.0091 0.259228,-0.026237 -0.666224,-0.1354908 -1.168242,-0.7847642 -1.168242,-1.5704045 0,-0.7856401 0.502018,-1.4349135 1.168242,-1.5704044 -0.0841,-0.017151 -0.17056,-0.026234 -0.259228,-0.026234 -0.01237,0 -0.02486,-3.458e-4 -0.03714,0 z" /><path
         id="rect1932-6-56"
         style="fill:#00ffff;fill-opacity:1;stroke:#000000;stroke-width:0.26612;stroke-linecap:round;stroke-miterlimit:3;stroke-dasharray:none;stroke-opacity:1;paint-order:stroke fill markers"
         d="m 13.532129,1.9512622 c -0.773428,0.025406 -1.390338,0.8468601 -1.390338,1.8627463 0,1.032011 0.636829,1.8627459 1.42747,1.8627459 0.08867,0 0.175116,-0.010645 0.259226,-0.030612 -0.666224,-0.1580722 -1.168242,-0.915557 -1.168242,-1.8321368 0,-0.9165798 0.502018,-1.6740647 1.168242,-1.8321375 -0.0841,-0.02001 -0.17056,-0.030608 -0.259228,-0.030608 -0.01238,0 -0.02486,-4.033e-4 -0.03714,0 z" /><path
         id="rect1932-6-5"
         style="fill:#00ffff;fill-opacity:1;stroke:#000000;stroke-width:0.26612;stroke-linecap:round;stroke-miterlimit:3;stroke-dasharray:none;stroke-opacity:1;paint-order:stroke fill markers"
         d="m 18.665837,2.2173535 c 0.773428,0.021776 1.390336,0.7258806 1.390336,1.5966406 0,0.8845817 -0.636827,1.5966406 -1.427468,1.5966406 -0.08867,0 -0.175117,-0.0091 -0.259227,-0.026237 0.666224,-0.1354906 1.168242,-0.7847642 1.168242,-1.5704044 0,-0.7856403 -0.502018,-1.4349136 -1.168242,-1.5704046 0.0841,-0.017151 0.17056,-0.026234 0.259227,-0.026234 0.01237,0 0.02486,-3.458e-4 0.03714,0 z" /><path
         id="rect1932-6-5-3"
         style="fill:#00ffff;fill-opacity:1;stroke:#000000;stroke-width:0.26612;stroke-linecap:round;stroke-miterlimit:3;stroke-dasharray:none;stroke-opacity:1;paint-order:stroke fill markers"
         d="m 20.352533,1.9512599 c 0.773427,0.025406 1.390337,0.8468605 1.390337,1.8627471 0,1.0320114 -0.636828,1.8627466 -1.427469,1.8627466 -0.08867,0 -0.175117,-0.010645 -0.259228,-0.030612 0.666224,-0.1580726 1.168242,-0.915558 1.168242,-1.8321379 0,-0.9165803 -0.502018,-1.6740655 -1.168242,-1.8321384 0.0841,-0.02001 0.17056,-0.030605 0.259228,-0.030605 0.01238,0 0.02486,-4.032e-4 0.03714,0 z" /></g></g></svg>
